<svg width="800px" height="450px" xmlns="http://www.w3.org/2000/svg" xmlns:xlink="http://www.w3.org/1999/xlink">
<g style="">  <path d="M116.199997,54.000000 L11.700000,61.299999 C8.100000,61.499999,5.000000,58.799999,4.700000,55.099999 L2.000000,16.700001 C1.800000,13.000000,4.500000,9.800000,8.100000,9.600000 L112.699999,2.300000 C116.299999,2.100000,119.399999,4.800000,119.699999,8.500000 L122.399999,46.900002 C122.599998,50.400002,117.099998,54.000000,116.199997,54.000000 Z " style="fill: rgba(74, 12, 139, 1.000000); stroke-width: 0.000000px; stroke: rgba(74, 12, 139, 1.000000); " fill="#5e239c" stroke="#5e239c" stroke-width="0.000000" />
  <path d="M151.000000,44.200001 C151.000000,46.300001,149.800000,48.100001,147.400000,49.400001 C145.500000,50.500001,143.700000,51.000001,141.900000,51.000001 L141.400000,51.000001 C141.000000,51.000001,139.400000,49.900001,136.700000,47.800001 C136.100000,47.800001,135.200000,48.000001,133.900000,48.400001 C132.600000,48.800001,131.700000,49.000001,131.100000,49.000001 C130.500000,49.000001,129.600000,49.000001,128.500000,49.100001 L126.000000,49.300001 C123.100000,49.500001,120.800001,48.100001,119.200000,45.100001 C118.300000,43.500001,117.900000,42.200001,117.900000,41.100001 C117.900000,38.900001,118.200000,37.400001,118.700000,36.900001 C120.500000,35.000001,123.100000,33.500001,126.600000,32.500001 C130.400000,31.300001,132.500001,30.400001,133.100000,30.000001 C133.700000,29.500001,134.000000,28.700001,134.000000,27.400001 C134.000000,26.500001,133.200000,25.700001,131.700000,25.100001 C130.500000,24.600001,129.600001,24.300001,128.900001,24.300001 C128.400001,24.300001,127.800000,24.300001,127.300000,24.400001 C128.300000,25.400001,128.800000,26.600001,128.800000,27.900001 C128.800000,28.500001,128.300000,29.300001,127.400001,30.200001 C126.500001,31.100001,125.700000,31.700001,125.100001,31.900001 C124.400001,32.100001,123.700001,32.200001,122.800001,32.200001 C121.000001,32.200001,119.500001,31.600001,118.400001,30.300001 C117.300000,29.100001,116.800000,27.500001,116.800000,25.700001 C116.800000,22.900001,119.300000,20.900001,124.200001,19.500001 C127.600001,18.500001,130.900000,18.100001,134.200001,18.100001 C137.800000,18.100001,140.300000,19.200001,141.900000,21.500001 C143.200000,23.400001,143.800000,26.200001,143.800000,29.900001 C143.800000,30.500001,143.800000,31.500001,143.700000,32.800001 C143.600000,34.100001,143.600000,35.100001,143.600000,35.700001 L143.600000,40.900001 C143.600000,41.200001,143.700000,41.500001,144.000000,41.800001 C144.300000,42.100001,144.600000,42.300001,144.800000,42.300001 C145.200000,42.300001,145.400000,41.700001,145.600000,40.400001 C145.800000,39.000001,146.100000,38.200001,146.400000,37.900001 C147.300000,37.500001,148.200000,37.000001,149.100000,36.600001 L149.600000,36.600001 C150.500000,38.700001,151.000000,41.299999,151.000000,44.200001 Z M136.600006,41.700001 L136.600006,41.100001 C136.600006,38.600001,136.200006,36.500001,135.400006,34.800001 C134.600006,35.000001,133.500006,35.500001,132.000006,36.100001 C130.100006,36.900001,129.200006,37.700001,129.200006,38.600001 C129.200006,39.500000,130.300006,40.300001,132.400006,41.000001 C134.100006,41.600001,135.400006,41.900001,136.200006,41.900001 C136.300003,41.900002,136.500000,41.799999,136.600006,41.700001 Z " style="fill: rgba(0, 0, 0, 1.000000); stroke-width: 0.000000px; stroke: rgba(0, 0, 0, 1.000000); " fill="#000000" stroke="#000000" stroke-width="0.000000" />
  <path d="M183.600006,36.099998 C183.600006,42.599998,181.700006,46.799998,177.800006,48.799998 L175.300006,50.099998 C173.800006,50.899998,173.000006,51.199998,172.800006,51.199998 L169.100006,51.199998 C168.800006,51.099998,168.000006,50.899998,166.600006,50.399998 C166.600006,50.399998,166.500006,50.599998,166.500006,50.999998 C166.500006,51.399998,166.600006,52.299998,166.700006,53.599998 C166.900006,55.199998,167.100006,56.199998,167.200006,56.599998 L171.000006,56.199998 C171.900006,56.199998,172.400006,56.399998,172.400006,56.799998 C172.600006,57.999998,172.800006,59.299998,172.800006,60.799998 C172.800006,62.099998,172.600006,62.799998,172.200006,62.799998 C171.800006,62.799998,170.600006,62.799998,168.600006,62.899998 L165.000006,62.999998 L159.200006,62.799998 C159.000006,62.799998,158.500006,62.799998,157.500006,62.899998 L156.000000,63.000000 C155.900000,63.000000,155.200000,62.900000,154.000000,62.800000 C153.100000,62.900000,151.800000,62.800000,150.300000,62.400000 C150.200000,61.700000,150.100000,60.800000,150.100000,59.600000 L150.100000,57.300000 C150.200000,56.800000,151.000000,56.300000,152.400000,55.700000 L155.400000,54.600000 C155.400000,53.800000,155.200000,51.800000,155.000000,48.700000 L154.700000,44.700000 L154.700000,40.400000 C154.700000,37.200000,154.500000,34.000000,154.000000,30.900000 C154.000000,30.700000,153.700000,30.500000,153.200000,30.500000 C152.500000,30.500000,151.600000,30.600000,150.500000,30.800000 C150.500000,30.700000,150.400000,30.500000,150.300000,30.200000 C150.200000,29.900000,150.100000,29.700000,150.100000,29.500000 C150.100000,26.900000,150.100000,25.000000,150.200000,23.800000 C150.200000,23.300000,150.600000,22.900000,151.400000,22.800000 L153.300000,22.700000 C154.100000,22.700000,155.400000,22.700000,157.000000,22.600000 C158.300000,22.300000,160.200000,22.000000,162.800000,21.500000 C163.100000,21.900000,163.300000,22.500000,163.400000,23.200000 C163.500000,24.300000,163.600000,25.000000,163.600000,25.400000 C164.100000,24.900000,164.800000,24.200000,165.900000,23.300000 C166.300000,23.000000,167.100000,22.500000,168.600000,21.900000 C170.000000,21.300000,170.900000,21.000000,171.400000,21.000000 C174.500000,21.000000,176.800000,21.600000,178.100000,22.700000 C181.699997,25.900000,183.600006,30.400000,183.600006,36.099998 Z M173.000000,36.500000 C173.000000,34.700000,172.800000,33.100000,172.400000,31.500000 C171.800000,29.100000,170.800000,27.900000,169.500000,27.900000 C166.600000,27.900000,165.200000,29.200000,165.400000,31.900000 C165.400000,32.100000,165.400000,32.700000,165.300000,33.700000 L165.200000,35.000000 C165.200000,37.000000,165.400000,38.900000,165.800000,40.600000 C166.400000,43.300000,167.500000,44.700000,169.000000,44.700000 C171.600006,44.599998,173.000000,41.900002,173.000000,36.500000 Z " style="fill: rgba(0, 0, 0, 1.000000); stroke-width: 0.000000px; stroke: rgba(0, 0, 0, 1.000000); " fill="#000000" stroke="#000000" stroke-width="0.000000" />
  <path d="M216.800003,44.200001 C216.800003,46.300001,215.600003,48.100001,213.200003,49.400001 C211.300003,50.500001,209.500003,51.000001,207.700003,51.000001 L207.200003,51.000001 C206.800003,51.000001,205.200003,49.900001,202.500003,47.800001 C201.900003,47.800001,201.000003,48.000001,199.700003,48.400001 C198.400003,48.800001,197.500003,49.000001,196.900003,49.000001 C196.300004,49.000001,195.400003,49.000001,194.300004,49.100001 L191.800004,49.300001 C188.900003,49.500001,186.600004,48.100001,185.000003,45.100001 C184.100003,43.500001,183.700003,42.200001,183.700003,41.100001 C183.700003,38.900001,184.000003,37.400001,184.500003,36.900001 C186.300003,35.000001,188.900003,33.500001,192.400003,32.500001 C196.200003,31.300001,198.300004,30.400001,198.900003,30.000001 C199.500004,29.500001,199.800003,28.700001,199.800003,27.400001 C199.800003,26.500001,199.000003,25.700001,197.500004,25.100001 C196.300003,24.600001,195.400004,24.300001,194.700004,24.300001 C194.200004,24.300001,193.600004,24.300001,193.100004,24.400001 C194.100004,25.400001,194.600004,26.600001,194.600004,27.900001 C194.600004,28.500001,194.100004,29.300001,193.200004,30.200001 C192.300004,31.100001,191.500004,31.700001,190.900004,31.900001 C190.200004,32.100001,189.500004,32.200001,188.600004,32.200001 C186.800004,32.200001,185.300004,31.600001,184.200004,30.300001 C183.100004,29.100001,182.600004,27.500001,182.600004,25.700001 C182.600004,22.900001,185.100004,20.900001,190.000004,19.500001 C193.400004,18.500001,196.700003,18.100001,200.000004,18.100001 C203.600004,18.100001,206.100004,19.200001,207.700003,21.500001 C209.000003,23.400001,209.600003,26.200001,209.600003,29.900001 C209.600003,30.500001,209.600003,31.500001,209.500003,32.800001 C209.400003,34.100001,209.400003,35.100001,209.400003,35.700001 L209.400003,40.900001 C209.400003,41.200001,209.500003,41.500001,209.800003,41.800001 C210.100003,42.100001,210.400003,42.300001,210.600003,42.300001 C211.000003,42.300001,211.200003,41.700001,211.400003,40.400001 C211.600003,39.000001,211.900003,38.200001,212.200003,37.900001 C213.100003,37.500001,214.000003,37.000001,214.900004,36.600001 L215.400004,36.600001 C216.300003,38.700001,216.800003,41.299999,216.800003,44.200001 Z M202.500000,41.700001 L202.500000,41.100001 C202.500000,38.600001,202.100000,36.500001,201.300000,34.800001 C200.500000,35.000001,199.400000,35.500001,197.900000,36.100001 C196.000000,36.900001,195.100000,37.700001,195.100000,38.600001 C195.100000,39.500000,196.200000,40.300001,198.300000,41.000001 C200.000000,41.600001,201.300000,41.900001,202.000000,41.900001 C202.199997,41.900002,202.300003,41.799999,202.500000,41.700001 Z " style="fill: rgba(0, 0, 0, 1.000000); stroke-width: 0.000000px; stroke: rgba(0, 0, 0, 1.000000); " fill="#000000" stroke="#000000" stroke-width="0.000000" />
  <path d="M235.600006,47.099998 C235.500006,48.899998,235.400006,50.199998,235.300006,50.799999 C235.100006,52.399999,234.800006,53.499999,234.500006,54.299999 C233.400006,54.099999,231.600006,53.999999,229.100006,53.999999 C227.800006,53.999999,225.700006,53.999999,222.900006,53.999999 L216.800006,54.099999 L216.600006,54.299999 L216.600006,52.899999 C216.600006,50.999999,216.800006,49.699998,217.200006,49.099999 C217.400006,48.799999,218.300006,48.199999,220.000006,47.399999 C220.000006,45.399999,220.000006,42.599998,220.000006,38.999999 L220.000006,26.500000 C220.000006,26.000000,220.100006,25.200000,220.200006,24.200000 C220.300006,23.200000,220.400006,22.400000,220.400006,21.900000 C220.400006,21.500000,220.300006,21.200000,220.000006,21.200000 C219.900006,21.200000,219.400006,21.200000,218.500006,21.300000 L216.900006,21.400000 C216.700006,21.400000,216.300006,21.200000,215.900006,20.800000 C216.400006,19.400000,217.100006,17.300000,218.000006,14.600000 C219.500006,14.800000,220.800006,14.800000,221.700006,14.700000 C222.100006,14.500000,222.400006,14.400000,222.700006,14.400000 C224.700006,14.400000,227.700006,14.700000,231.800007,15.400000 C232.200007,15.500000,232.500007,15.800000,232.500007,16.200000 C232.500007,16.900000,232.400007,18.000000,232.300007,19.400000 C232.200007,20.600000,232.100007,21.600000,232.100007,22.500000 C232.100007,23.900000,231.900007,27.000000,231.700007,31.900000 L231.400007,37.700000 L231.400007,42.700000 C231.400007,44.700000,231.400007,46.100000,231.400007,47.000000 C231.800007,47.200000,232.200007,47.200000,232.400007,47.200000 C232.600007,47.200000,232.900007,47.100000,233.300006,47.000000 C233.700006,46.900000,234.000006,46.800000,234.200006,46.800000 C234.699997,46.799999,235.100006,46.900002,235.600006,47.099998 Z " style="fill: rgba(0, 0, 0, 1.000000); stroke-width: 0.000000px; stroke: rgba(0, 0, 0, 1.000000); " fill="#000000" stroke="#000000" stroke-width="0.000000" />
  <path d="M267.100006,36.099998 C266.500006,40.499999,264.500006,43.999999,261.300006,46.599998 C258.100006,49.099998,254.200006,50.399998,249.700006,50.399998 C247.400006,50.399998,245.100006,49.599998,242.700006,48.099998 C240.500005,46.699998,238.700006,44.999999,237.300005,42.899999 C237.000005,42.499999,236.700005,41.499999,236.400005,39.899999 C236.100005,38.299999,235.900005,37.199999,235.900005,36.499999 C235.900005,27.199998,239.200005,21.299999,245.900005,18.699999 C248.200005,17.499999,250.400005,16.999999,252.600005,16.999999 C254.600005,16.999999,256.400005,17.399999,257.900005,18.099999 C259.100006,18.699999,260.600006,19.799999,262.300006,21.299999 C264.200006,22.999999,265.300006,24.299999,265.600006,25.299999 C266.000006,26.699999,266.600006,29.099999,267.200006,32.299999 C267.200006,32.299999,267.100006,32.699999,267.100006,33.299999 C267.100006,33.900002,267.100006,34.900002,267.100006,36.099998 Z M256.600006,30.299999 C256.600006,28.499999,256.100006,26.999999,255.000006,25.499999 C253.900006,23.899999,252.500006,23.199999,250.800006,23.199999 C249.400006,23.199999,248.400006,23.899999,247.600006,25.399999 C247.300006,25.999999,246.900006,27.299999,246.300006,29.399999 C245.600006,31.999999,245.300006,34.199999,245.300006,35.999999 C245.300006,37.599999,245.700006,39.099999,246.400006,40.399999 C247.300006,41.899999,248.500006,42.699999,250.000006,42.699999 C252.100006,42.699999,253.800006,40.999999,255.000006,37.599999 C256.200012,35.000000,256.600006,32.599998,256.600006,30.299999 Z " style="fill: rgba(0, 0, 0, 1.000000); stroke-width: 0.000000px; stroke: rgba(0, 0, 0, 1.000000); " fill="#000000" stroke="#000000" stroke-width="0.000000" />
  <path d="M299.100006,36.099998 C298.500006,40.499999,296.500006,43.999999,293.300006,46.599998 C290.100006,49.099998,286.200006,50.399998,281.700006,50.399998 C279.400006,50.399998,277.100006,49.599998,274.700006,48.099998 C272.500005,46.699998,270.700006,44.999999,269.300005,42.899999 C269.000005,42.499999,268.700005,41.499999,268.400005,39.899999 C268.100005,38.299999,267.900005,37.199999,267.900005,36.499999 C267.900005,27.199998,271.200005,21.299999,277.900005,18.699999 C280.200005,17.499999,282.400005,16.999999,284.600005,16.999999 C286.600005,16.999999,288.400005,17.399999,289.900005,18.099999 C291.100006,18.699999,292.600006,19.799999,294.300006,21.299999 C296.200006,22.999999,297.300006,24.299999,297.600006,25.299999 C298.000006,26.699999,298.600006,29.099999,299.200006,32.299999 C299.200006,32.299999,299.100006,32.699999,299.100006,33.299999 C299.000000,33.900002,299.000000,34.900002,299.100006,36.099998 Z M288.600006,30.299999 C288.600006,28.499999,288.100006,26.999999,287.000006,25.499999 C285.900006,23.899999,284.500006,23.199999,282.800006,23.199999 C281.400006,23.199999,280.400006,23.899999,279.600006,25.399999 C279.300006,25.999999,278.900006,27.299999,278.300006,29.399999 C277.600006,31.999999,277.300006,34.199999,277.300006,35.999999 C277.300006,37.599999,277.700006,39.099999,278.400006,40.399999 C279.300006,41.899999,280.500006,42.699999,282.000006,42.699999 C284.100006,42.699999,285.800006,40.999999,287.000006,37.599999 C288.100006,35.000000,288.600006,32.599998,288.600006,30.299999 Z " style="fill: rgba(0, 0, 0, 1.000000); stroke-width: 0.000000px; stroke: rgba(0, 0, 0, 1.000000); " fill="#000000" stroke="#000000" stroke-width="0.000000" />
  <path d="M328.000000,42.400002 L328.000000,47.300002 C327.700000,48.300002,327.500000,48.900002,327.300000,48.900002 C328.300000,48.900002,326.800000,48.700002,322.900000,48.300002 C322.100000,48.200002,320.300000,48.000002,317.600000,47.800002 L301.000000,47.800002 L301.000000,44.600002 C301.000000,42.600002,301.200000,41.100002,301.500000,40.100002 L304.200000,36.900002 C305.200000,35.700001,306.700000,33.600002,308.800000,30.500001 C309.800000,29.000001,311.000000,27.300001,312.400000,25.300002 C312.400000,25.200002,312.400000,25.200002,312.200000,25.200002 C311.800000,25.200002,309.800000,25.700002,306.100000,26.700002 C306.000000,26.900002,306.000000,27.700002,306.200000,29.000002 C306.200000,29.400002,306.300000,30.200002,306.400000,31.300002 C306.400000,31.600002,306.300000,31.900002,306.200000,32.200002 L304.400000,32.100001 C304.300000,32.100001,303.100000,32.200002,300.900000,32.300002 C300.200000,32.500002,299.700000,32.700002,299.400000,32.700002 C299.000000,32.700002,298.700000,32.400001,298.700000,31.700002 C298.700000,31.100001,299.100000,28.500001,300.000000,24.000002 C300.000000,23.900002,300.200000,22.700002,300.700000,20.200002 C301.100000,19.900002,301.500000,19.700002,301.800000,19.800002 C302.600000,19.900002,303.900000,19.800002,305.600000,19.600002 C307.600000,19.400002,309.100000,19.200002,309.900000,19.200002 C312.600000,19.100002,316.900000,19.000002,323.000000,19.000002 C323.400001,19.000002,323.900000,19.600002,324.700001,20.700002 C325.500001,21.800002,325.900001,22.600002,325.900001,23.000002 C325.900001,23.400002,325.400001,24.200002,324.300001,25.500002 L322.500001,27.500002 C320.600001,30.500002,317.800001,35.100002,314.200000,41.200002 L320.800000,41.200002 C320.900000,40.800002,321.100000,38.400002,321.600000,33.800001 C323.700000,33.500001,325.400000,33.200001,326.900001,32.700001 C327.300001,33.100001,327.600001,33.500001,327.600001,33.800001 C327.899994,39.400002,328.000000,42.200001,328.000000,42.400002 Z " style="fill: rgba(0, 0, 0, 1.000000); stroke-width: 0.000000px; stroke: rgba(0, 0, 0, 1.000000); " fill="#000000" stroke="#000000" stroke-width="0.000000" />
  <path d="M362.600006,44.200001 C362.600006,46.300001,361.400006,48.100001,359.000006,49.400001 C357.100006,50.500001,355.300006,51.000001,353.500006,51.000001 L353.000000,51.000001 C352.600000,51.000001,351.000000,49.900001,348.300000,47.800001 C347.700000,47.800001,346.800000,48.000001,345.500000,48.400001 C344.200000,48.800001,343.300000,49.000001,342.700000,49.000001 C342.100000,49.000001,341.200000,49.000001,340.100000,49.100001 L337.600000,49.300001 C334.700000,49.500001,332.400001,48.100001,330.800000,45.100001 C329.900000,43.500001,329.500000,42.200001,329.500000,41.100001 C329.500000,38.900001,329.800000,37.400001,330.300000,36.900001 C332.100000,35.000001,334.700000,33.500001,338.200000,32.500001 C342.000000,31.300001,344.100000,30.400001,344.700000,30.000001 C345.300000,29.500001,345.600000,28.700001,345.600000,27.400001 C345.600000,26.500001,344.800000,25.700001,343.300000,25.100001 C342.100000,24.600001,341.200000,24.300001,340.500000,24.300001 C340.000000,24.300001,339.400000,24.300001,338.900000,24.400001 C339.900000,25.400001,340.400000,26.600001,340.400000,27.900001 C340.400000,28.500001,339.900000,29.300001,339.000000,30.200001 C338.100000,31.100001,337.300000,31.700001,336.700000,31.900001 C336.000000,32.100001,335.300000,32.200001,334.400001,32.200001 C332.600001,32.200001,331.100001,31.600001,330.000000,30.300001 C328.900000,29.100001,328.400000,27.500001,328.400000,25.700001 C328.400000,22.900001,330.900000,20.900001,335.800000,19.500001 C339.200001,18.500001,342.500000,18.100001,345.800000,18.100001 C349.400000,18.100001,351.900000,19.200001,353.500000,21.500001 C354.800000,23.400001,355.400000,26.200001,355.400000,29.900001 C355.400000,30.500001,355.400000,31.500001,355.300000,32.800001 C355.200000,34.100001,355.200000,35.100001,355.200000,35.700001 L355.200000,40.900001 C355.200000,41.200001,355.300000,41.500001,355.600000,41.800001 C355.900000,42.100001,356.200000,42.300001,356.400000,42.300001 C356.800000,42.300001,357.000000,41.700001,357.200000,40.400001 C357.400000,39.000001,357.700000,38.200001,358.000000,37.900001 C358.900000,37.500001,359.800000,37.000001,360.700000,36.600001 L361.200000,36.600001 C362.100006,38.700001,362.600006,41.299999,362.600006,44.200001 Z M348.299988,41.700001 L348.299988,41.100001 C348.299988,38.600001,347.899988,36.500001,347.099988,34.800001 C346.299988,35.000001,345.199988,35.500001,343.699988,36.100001 C341.799988,36.900001,340.899988,37.700001,340.899988,38.600001 C340.899988,39.500000,341.999988,40.300001,344.099988,41.000001 C345.799988,41.600001,347.099988,41.900001,347.899988,41.900001 C348.000000,41.900002,348.100006,41.799999,348.299988,41.700001 Z " style="fill: rgba(0, 0, 0, 1.000000); stroke-width: 0.000000px; stroke: rgba(0, 0, 0, 1.000000); " fill="#000000" stroke="#000000" stroke-width="0.000000" />
  <path d="M51.099998,22.000000 C51.099998,22.200000,50.999998,22.700000,50.699998,23.500000 C50.399998,24.300000,50.299998,24.900000,50.299998,25.000000 C49.999998,26.400000,49.399998,27.600000,48.399998,28.700000 C47.999998,29.000000,46.899998,29.900000,45.299999,31.300000 C42.699999,32.600000,41.099999,33.500000,40.299999,33.800000 C38.399999,34.700000,36.699999,35.300000,35.099999,35.800000 C34.499999,36.000000,31.799999,36.600000,27.199999,37.600000 L27.199999,40.600000 C27.199999,42.200000,27.399999,43.300000,27.799999,43.800000 C27.899999,43.800000,28.199999,43.900000,28.899999,43.900000 C29.199999,43.900000,29.699999,43.900000,30.299999,43.800000 C30.899999,43.700000,31.399999,43.700000,31.699999,43.700000 C31.999999,43.700000,32.399999,43.700000,32.899999,43.600000 C33.399999,43.500000,33.799999,43.500000,34.099999,43.500000 C34.699999,43.500000,35.199999,43.700000,35.599999,44.000000 C35.399999,45.100000,35.299999,46.500000,35.299999,48.200000 L35.399999,52.000000 C32.699999,52.000000,28.499999,52.400000,22.999999,52.900000 C17.399999,53.500000,13.199999,53.800000,10.399999,53.900000 C10.299999,53.700000,10.199999,52.800000,10.199999,51.300000 C10.199999,51.000000,10.199999,50.500000,10.099999,49.800000 C9.999999,49.100000,9.999999,48.600000,9.999999,48.300000 C9.999999,47.400000,11.999999,46.000000,15.999999,44.200000 C15.999999,44.100000,15.999999,44.000000,15.999999,44.000000 L15.999999,39.000000 C15.599999,35.200000,15.299999,30.700000,15.099999,25.399999 C15.099999,24.299999,14.999999,23.100000,14.999999,21.899999 C14.999999,20.600000,14.999999,19.699999,15.099999,19.199999 C14.299999,18.999999,13.599999,18.899999,13.099999,18.899999 C12.799999,18.899999,12.399999,18.999999,11.899999,19.099999 C11.399999,19.299999,10.899999,19.299999,10.699999,19.299999 C9.599999,19.299999,9.099999,18.899999,9.099999,17.999999 C9.099999,17.299999,9.399999,14.299999,9.899999,8.800000 C10.199999,8.500000,10.499999,8.300000,10.899999,8.200000 C12.199999,7.900000,17.799999,7.700000,27.899999,7.700000 C32.699999,7.700000,36.899999,8.200000,40.599998,9.300000 C43.499999,10.100000,45.099998,10.700000,45.599998,10.800000 C47.399998,11.600000,48.699998,12.700000,49.599998,14.100000 C49.999998,14.800000,50.499998,16.100000,50.899998,17.900000 C50.900002,19.600000,51.099998,21.000000,51.099998,22.000000 Z M35.099998,21.500000 C35.099998,20.200000,34.599998,19.000000,33.499998,18.100000 C32.499998,17.100000,31.299998,16.600000,30.099998,16.600000 C26.799998,16.500000,24.399999,16.500000,23.099998,16.600000 C23.199998,21.800000,23.199998,24.400000,23.099998,24.500000 L23.499998,26.400000 C23.699998,27.200000,23.799998,27.700000,23.899998,27.700000 L24.499998,27.700000 C24.599998,27.700000,24.799998,27.700000,25.099998,27.600000 C25.399998,27.600000,25.499998,27.500000,25.699998,27.500000 C25.899998,27.500000,25.999998,27.500000,26.199998,27.400000 C26.399998,27.300000,26.599998,27.300000,26.699998,27.300000 C28.299998,27.300000,29.999998,26.900000,31.799998,26.200000 C32.299998,26.000000,33.199998,25.300000,34.499998,23.900000 C34.900002,23.400000,35.099998,22.600000,35.099998,21.500000 Z " style="fill: rgba(255, 255, 255, 1.000000); stroke-width: 0.000000px; stroke: rgba(0, 0, 0, 1.000000); " fill="#feffff" stroke="#000000" stroke-width="0.000000" />
  <path d="M73.599998,50.099998 C70.799999,50.299998,68.299998,50.499998,66.099998,50.799998 C65.399998,50.899998,63.899998,51.199998,61.699998,51.499998 L60.399998,51.599998 C56.999998,51.999998,54.299999,52.199998,52.299998,52.199998 C51.999998,52.199998,51.499998,52.099998,50.599998,51.799998 L50.599998,50.599998 C50.599998,47.899998,50.799998,45.899999,51.199998,44.699998 C51.199998,44.499998,51.699998,44.199998,52.499998,43.799998 L56.299998,41.999998 L56.299998,37.399998 C56.299998,36.799998,56.199998,35.399998,56.099998,33.099998 C55.999998,31.399998,55.899998,27.899998,55.799998,22.599998 C55.799998,20.499998,55.599998,19.099998,55.299998,18.399998 C52.199998,18.399998,50.599998,17.999998,50.599998,17.299998 L50.899998,14.699999 C51.099998,13.299999,51.199998,11.999999,51.199998,10.799998 C53.899998,9.999998,56.499998,9.699998,58.799998,9.699998 C58.999998,9.699998,59.699998,9.699998,60.799998,9.799998 L62.699998,9.899998 C62.899998,9.899998,63.699998,9.899998,65.199998,9.999998 L67.799998,10.099998 C67.899998,10.099998,67.999998,10.099998,68.199998,10.199998 C68.399998,10.299998,68.499998,10.299998,68.599998,10.299998 C68.899998,10.299998,69.599998,10.499998,70.599998,10.799998 C70.899998,10.899998,71.599998,12.999999,72.599998,17.199999 C72.599998,17.399999,72.699998,18.099999,72.699998,19.199999 C71.899998,19.299999,70.599998,19.599999,68.899998,19.999999 C68.799998,19.999999,68.199998,20.099999,66.899998,20.399999 C66.199998,20.499999,65.699998,20.799999,65.499998,21.199999 L65.499998,22.799999 C65.499998,26.799999,65.799998,32.299999,66.299998,39.299999 C66.299998,39.599999,66.499998,40.099999,66.799998,40.699999 C67.899998,40.699999,69.699998,40.399999,72.199998,39.899999 C72.299998,40.199999,72.499998,40.499999,72.799998,40.699999 C72.799998,41.699999,72.999998,43.199999,73.199998,45.299998 L73.499998,48.499999 L73.499998,50.099998 L73.599998,50.099998 Z " style="fill: rgba(255, 255, 255, 1.000000); stroke-width: 0.000000px; stroke: rgba(0, 0, 0, 1.000000); " fill="#feffff" stroke="#000000" stroke-width="0.000000" />
  <path d="M116.199997,32.000000 C116.199997,35.100000,115.299997,38.200000,113.599997,41.200000 C111.199997,45.400000,108.499997,48.400000,105.599997,50.099999 C102.699997,51.799999,98.899997,52.699999,94.399997,52.599999 L85.299997,52.499999 C82.299997,52.499999,78.799997,51.999999,74.699996,51.199999 L74.699996,49.400000 C74.699996,48.400000,74.899996,47.199999,75.299996,45.800000 C75.299996,45.800000,76.099997,45.300000,77.699997,44.400000 C79.299997,43.500000,80.099997,42.800000,80.099997,42.300000 C80.099997,42.100000,79.999997,40.200000,79.799997,36.500000 C79.399997,29.699999,79.199997,24.500000,79.099997,20.699999 C79.099997,20.299999,78.899997,20.099999,78.599997,20.099999 C78.299997,20.099999,77.999997,20.099999,77.499997,20.099999 C77.099997,20.099999,76.699997,20.099999,76.399997,20.099999 C75.499997,20.099999,74.799997,19.999999,74.299997,19.799999 C74.399997,17.499999,74.699997,14.100000,75.199997,9.600000 C75.799997,9.100000,76.799997,8.900000,78.199997,8.900000 C78.499997,8.900000,79.399997,9.000000,80.799997,9.100000 L83.399997,9.300000 L83.799997,9.300000 C84.299997,9.300000,85.099996,9.400000,86.099996,9.500000 C87.099996,9.700000,87.899996,9.700000,88.399996,9.700000 C87.899996,9.700000,88.199996,9.800000,89.199996,10.100000 C90.099996,10.300000,90.899996,10.500000,91.799996,10.700000 L94.899996,11.300000 C95.299996,11.400000,98.299996,12.000000,103.899996,13.200000 C107.499996,14.500000,110.399996,16.900000,112.699996,20.399999 C115.099998,23.900000,116.199997,27.799999,116.199997,32.000000 Z M105.199997,31.500000 C105.199997,28.200000,103.699997,25.500000,100.699997,23.300000 C98.099997,21.400000,95.399997,20.500000,92.599997,20.500000 C92.499997,20.500000,92.399997,20.600000,92.299997,20.700000 L92.199997,20.900000 C92.199997,20.900000,92.199997,20.800000,92.199997,20.700000 C92.199997,20.700000,92.099997,20.600000,91.999997,20.600000 C91.899997,20.600000,91.799997,20.600000,91.599997,20.700000 C91.399997,20.700000,91.199997,20.800000,91.199997,20.800000 C90.899997,22.600000,90.599997,24.500000,90.499997,26.300000 C90.399997,27.900000,90.299997,30.400000,90.199997,33.900000 C90.199997,34.600000,90.099997,35.800000,89.999997,37.600000 L89.699997,40.300000 L89.699997,43.400000 L89.999997,43.200000 C90.299997,43.200000,90.599997,43.200000,91.199997,43.300000 C91.699997,43.400000,92.099997,43.400000,92.399997,43.400000 C97.699997,43.400000,101.399997,41.400000,103.499997,37.300000 C104.599998,34.700001,105.199997,32.799999,105.199997,31.500000 Z " style="fill: rgba(255, 255, 255, 1.000000); stroke-width: 0.000000px; stroke: rgba(255, 255, 255, 1.000000); " fill="#feffff" stroke="#feffff" stroke-width="0.000000" />
</g></svg>