<?xml version="1.0" encoding="utf-8"?>
<!-- Generator: Adobe Illustrator 19.1.0, SVG Export Plug-In . SVG Version: 6.00 Build 0)  -->
<svg version="1.1" id="Layer_1" xmlns="http://www.w3.org/2000/svg" xmlns:xlink="http://www.w3.org/1999/xlink" x="0px" y="0px"
	 viewBox="0 0 365.3 87" style="enable-background:new 0 0 365.3 87;" xml:space="preserve">
<style type="text/css">
	.st0{fill:#FF5733;}
	.st1{fill:#FFFFFF;}
	.st2{fill:#3F041E;}
</style>
<g>
	<path class="st0" d="M116.2,54L11.7,61.3c-3.6,0.2-6.7-2.5-7-6.2L2,16.7C1.8,13,4.5,9.8,8.1,9.6l104.6-7.3c3.6-0.2,6.7,2.5,7,6.2
		l2.7,38.4C122.6,50.4,117.1,54,116.2,54z"/>
	<g>
		<path d="M151,44.2c0,2.1-1.2,3.9-3.6,5.2c-1.9,1.1-3.7,1.6-5.5,1.6h-0.5c-0.4,0-2-1.1-4.7-3.2c-0.6,0-1.5,0.2-2.8,0.6
			c-1.3,0.4-2.2,0.6-2.8,0.6s-1.5,0-2.6,0.1l-2.5,0.2c-2.9,0.2-5.2-1.2-6.8-4.2c-0.9-1.6-1.3-2.9-1.3-4c0-2.2,0.3-3.7,0.8-4.2
			c1.8-1.9,4.4-3.4,7.9-4.4c3.8-1.2,5.9-2.1,6.5-2.5c0.6-0.5,0.9-1.3,0.9-2.6c0-0.9-0.8-1.7-2.3-2.3c-1.2-0.5-2.1-0.8-2.8-0.8
			c-0.5,0-1.1,0-1.6,0.1c1,1,1.5,2.2,1.5,3.5c0,0.6-0.5,1.4-1.4,2.3c-0.9,0.9-1.7,1.5-2.3,1.7c-0.7,0.2-1.4,0.3-2.3,0.3
			c-1.8,0-3.3-0.6-4.4-1.9c-1.1-1.2-1.6-2.8-1.6-4.6c0-2.8,2.5-4.8,7.4-6.2c3.4-1,6.7-1.4,10-1.4c3.6,0,6.1,1.1,7.7,3.4
			c1.3,1.9,1.9,4.7,1.9,8.4c0,0.6,0,1.6-0.1,2.9c-0.1,1.3-0.1,2.3-0.1,2.9v5.2c0,0.3,0.1,0.6,0.4,0.9c0.3,0.3,0.6,0.5,0.8,0.5
			c0.4,0,0.6-0.6,0.8-1.9c0.2-1.4,0.5-2.2,0.8-2.5c0.9-0.4,1.8-0.9,2.7-1.3h0.5C150.5,38.7,151,41.3,151,44.2z M136.6,41.7v-0.6
			c0-2.5-0.4-4.6-1.2-6.3c-0.8,0.2-1.9,0.7-3.4,1.3c-1.9,0.8-2.8,1.6-2.8,2.5c0,0.9,1.1,1.7,3.2,2.4c1.7,0.6,3,0.9,3.8,0.9
			C136.3,41.9,136.5,41.8,136.6,41.7z"/>
		<path d="M183.6,36.1c0,6.5-1.9,10.7-5.8,12.7l-2.5,1.3c-1.5,0.8-2.3,1.1-2.5,1.1h-3.7c-0.3-0.1-1.1-0.3-2.5-0.8
			c0,0-0.1,0.2-0.1,0.6c0,0.4,0.1,1.3,0.2,2.6c0.2,1.6,0.4,2.6,0.5,3l3.8-0.4c0.9,0,1.4,0.2,1.4,0.6c0.2,1.2,0.4,2.5,0.4,4
			c0,1.3-0.2,2-0.6,2c-0.4,0-1.6,0-3.6,0.1l-3.6,0.1l-5.8-0.2c-0.2,0-0.7,0-1.7,0.1L156,63c-0.1,0-0.8-0.1-2-0.2
			c-0.9,0.1-2.2,0-3.7-0.4c-0.1-0.7-0.2-1.6-0.2-2.8v-2.3c0.1-0.5,0.9-1,2.3-1.6l3-1.1c0-0.8-0.2-2.8-0.4-5.9l-0.3-4v-4.3
			c0-3.2-0.2-6.4-0.7-9.5c0-0.2-0.3-0.4-0.8-0.4c-0.7,0-1.6,0.1-2.7,0.3c0-0.1-0.1-0.3-0.2-0.6c-0.1-0.3-0.2-0.5-0.2-0.7
			c0-2.6,0-4.5,0.1-5.7c0-0.5,0.4-0.9,1.2-1l1.9-0.1c0.8,0,2.1,0,3.7-0.1c1.3-0.3,3.2-0.6,5.8-1.1c0.3,0.4,0.5,1,0.6,1.7
			c0.1,1.1,0.2,1.8,0.2,2.2c0.5-0.5,1.2-1.2,2.3-2.1c0.4-0.3,1.2-0.8,2.7-1.4c1.4-0.6,2.3-0.9,2.8-0.9c3.1,0,5.4,0.6,6.7,1.7
			C181.7,25.9,183.6,30.4,183.6,36.1z M173,36.5c0-1.8-0.2-3.4-0.6-5c-0.6-2.4-1.6-3.6-2.9-3.6c-2.9,0-4.3,1.3-4.1,4
			c0,0.2,0,0.8-0.1,1.8l-0.1,1.3c0,2,0.2,3.9,0.6,5.6c0.6,2.7,1.7,4.1,3.2,4.1C171.6,44.6,173,41.9,173,36.5z"/>
		<path d="M216.8,44.2c0,2.1-1.2,3.9-3.6,5.2c-1.9,1.1-3.7,1.6-5.5,1.6h-0.5c-0.4,0-2-1.1-4.7-3.2c-0.6,0-1.5,0.2-2.8,0.6
			c-1.3,0.4-2.2,0.6-2.8,0.6s-1.5,0-2.6,0.1l-2.5,0.2c-2.9,0.2-5.2-1.2-6.8-4.2c-0.9-1.6-1.3-2.9-1.3-4c0-2.2,0.3-3.7,0.8-4.2
			c1.8-1.9,4.4-3.4,7.9-4.4c3.8-1.2,5.9-2.1,6.5-2.5c0.6-0.5,0.9-1.3,0.9-2.6c0-0.9-0.8-1.7-2.3-2.3c-1.2-0.5-2.1-0.8-2.8-0.8
			c-0.5,0-1.1,0-1.6,0.1c1,1,1.5,2.2,1.5,3.5c0,0.6-0.5,1.4-1.4,2.3c-0.9,0.9-1.7,1.5-2.3,1.7c-0.7,0.2-1.4,0.3-2.3,0.3
			c-1.8,0-3.3-0.6-4.4-1.9c-1.1-1.2-1.6-2.8-1.6-4.6c0-2.8,2.5-4.8,7.4-6.2c3.4-1,6.7-1.4,10-1.4c3.6,0,6.1,1.1,7.7,3.4
			c1.3,1.9,1.9,4.7,1.9,8.4c0,0.6,0,1.6-0.1,2.9c-0.1,1.3-0.1,2.3-0.1,2.9v5.2c0,0.3,0.1,0.6,0.4,0.9c0.3,0.3,0.6,0.5,0.8,0.5
			c0.4,0,0.6-0.6,0.8-1.9c0.2-1.4,0.5-2.2,0.8-2.5c0.9-0.4,1.8-0.9,2.7-1.3h0.5C216.3,38.7,216.8,41.3,216.8,44.2z M202.5,41.7v-0.6
			c0-2.5-0.4-4.6-1.2-6.3c-0.8,0.2-1.9,0.7-3.4,1.3c-1.9,0.8-2.8,1.6-2.8,2.5c0,0.9,1.1,1.7,3.2,2.4c1.7,0.6,3,0.9,3.7,0.9
			C202.2,41.9,202.3,41.8,202.5,41.7z"/>
		<path d="M235.6,47.1c-0.1,1.8-0.2,3.1-0.3,3.7c-0.2,1.6-0.5,2.7-0.8,3.5c-1.1-0.2-2.9-0.3-5.4-0.3c-1.3,0-3.4,0-6.2,0l-6.1,0.1
			l-0.2,0.2v-1.4c0-1.9,0.2-3.2,0.6-3.8c0.2-0.3,1.1-0.9,2.8-1.7c0-2,0-4.8,0-8.4V26.5c0-0.5,0.1-1.3,0.2-2.3c0.1-1,0.2-1.8,0.2-2.3
			c0-0.4-0.1-0.7-0.4-0.7c-0.1,0-0.6,0-1.5,0.1l-1.6,0.1c-0.2,0-0.6-0.2-1-0.6c0.5-1.4,1.2-3.5,2.1-6.2c1.5,0.2,2.8,0.2,3.7,0.1
			c0.4-0.2,0.7-0.3,1-0.3c2,0,5,0.3,9.1,1c0.4,0.1,0.7,0.4,0.7,0.8c0,0.7-0.1,1.8-0.2,3.2c-0.1,1.2-0.2,2.2-0.2,3.1
			c0,1.4-0.2,4.5-0.4,9.4l-0.3,5.8v5c0,2,0,3.4,0,4.3c0.4,0.2,0.8,0.2,1,0.2c0.2,0,0.5-0.1,0.9-0.2c0.4-0.1,0.7-0.2,0.9-0.2
			C234.7,46.8,235.1,46.9,235.6,47.1z"/>
		<path d="M267.1,36.1c-0.6,4.4-2.6,7.9-5.8,10.5c-3.2,2.5-7.1,3.8-11.6,3.8c-2.3,0-4.6-0.8-7-2.3c-2.2-1.4-4-3.1-5.4-5.2
			c-0.3-0.4-0.6-1.4-0.9-3c-0.3-1.6-0.5-2.7-0.5-3.4c0-9.3,3.3-15.2,10-17.8c2.3-1.2,4.5-1.7,6.7-1.7c2,0,3.8,0.4,5.3,1.1
			c1.2,0.6,2.7,1.7,4.4,3.2c1.9,1.7,3,3,3.3,4c0.4,1.4,1,3.8,1.6,7c0,0-0.1,0.4-0.1,1C267.1,33.9,267.1,34.9,267.1,36.1z
			 M256.6,30.3c0-1.8-0.5-3.3-1.6-4.8c-1.1-1.6-2.5-2.3-4.2-2.3c-1.4,0-2.4,0.7-3.2,2.2c-0.3,0.6-0.7,1.9-1.3,4
			c-0.7,2.6-1,4.8-1,6.6c0,1.6,0.4,3.1,1.1,4.4c0.9,1.5,2.1,2.3,3.6,2.3c2.1,0,3.8-1.7,5-5.1C256.2,35,256.6,32.6,256.6,30.3z"/>
		<path d="M299.1,36.1c-0.6,4.4-2.6,7.9-5.8,10.5c-3.2,2.5-7.1,3.8-11.6,3.8c-2.3,0-4.6-0.8-7-2.3c-2.2-1.4-4-3.1-5.4-5.2
			c-0.3-0.4-0.6-1.4-0.9-3c-0.3-1.6-0.5-2.7-0.5-3.4c0-9.3,3.3-15.2,10-17.8c2.3-1.2,4.5-1.7,6.7-1.7c2,0,3.8,0.4,5.3,1.1
			c1.2,0.6,2.7,1.7,4.4,3.2c1.9,1.7,3,3,3.3,4c0.4,1.4,1,3.8,1.6,7c0,0-0.1,0.4-0.1,1C299,33.9,299,34.9,299.1,36.1z M288.6,30.3
			c0-1.8-0.5-3.3-1.6-4.8c-1.1-1.6-2.5-2.3-4.2-2.3c-1.4,0-2.4,0.7-3.2,2.2c-0.3,0.6-0.7,1.9-1.3,4c-0.7,2.6-1,4.8-1,6.6
			c0,1.6,0.4,3.1,1.1,4.4c0.9,1.5,2.1,2.3,3.6,2.3c2.1,0,3.8-1.7,5-5.1C288.1,35,288.6,32.6,288.6,30.3z"/>
		<path d="M328,42.4v4.9c-0.3,1-0.5,1.6-0.7,1.6c1,0-0.5-0.2-4.4-0.6c-0.8-0.1-2.6-0.3-5.3-0.5H301v-3.2c0-2,0.2-3.5,0.5-4.5
			l2.7-3.2c1-1.2,2.5-3.3,4.6-6.4c1-1.5,2.2-3.2,3.6-5.2c0-0.1,0-0.1-0.2-0.1c-0.4,0-2.4,0.5-6.1,1.5c-0.1,0.2-0.1,1,0.1,2.3
			c0,0.4,0.1,1.2,0.2,2.3c0,0.3-0.1,0.6-0.2,0.9l-1.8-0.1c-0.1,0-1.3,0.1-3.5,0.2c-0.7,0.2-1.2,0.4-1.5,0.4c-0.4,0-0.7-0.3-0.7-1
			c0-0.6,0.4-3.2,1.3-7.7c0-0.1,0.2-1.3,0.7-3.8c0.4-0.3,0.8-0.5,1.1-0.4c0.8,0.1,2.1,0,3.8-0.2c2-0.2,3.5-0.4,4.3-0.4
			c2.7-0.1,7-0.2,13.1-0.2c0.4,0,0.9,0.6,1.7,1.7s1.2,1.9,1.2,2.3c0,0.4-0.5,1.2-1.6,2.5l-1.8,2c-1.9,3-4.7,7.6-8.3,13.7h6.6
			c0.1-0.4,0.3-2.8,0.8-7.4c2.1-0.3,3.8-0.6,5.3-1.1c0.4,0.4,0.7,0.8,0.7,1.1C327.9,39.4,328,42.2,328,42.4z"/>
		<path d="M362.6,44.2c0,2.1-1.2,3.9-3.6,5.2c-1.9,1.1-3.7,1.6-5.5,1.6H353c-0.4,0-2-1.1-4.7-3.2c-0.6,0-1.5,0.2-2.8,0.6
			s-2.2,0.6-2.8,0.6c-0.6,0-1.5,0-2.6,0.1l-2.5,0.2c-2.9,0.2-5.2-1.2-6.8-4.2c-0.9-1.6-1.3-2.9-1.3-4c0-2.2,0.3-3.7,0.8-4.2
			c1.8-1.9,4.4-3.4,7.9-4.4c3.8-1.2,5.9-2.1,6.5-2.5c0.6-0.5,0.9-1.3,0.9-2.6c0-0.9-0.8-1.7-2.3-2.3c-1.2-0.5-2.1-0.8-2.8-0.8
			c-0.5,0-1.1,0-1.6,0.1c1,1,1.5,2.2,1.5,3.5c0,0.6-0.5,1.4-1.4,2.3c-0.9,0.9-1.7,1.5-2.3,1.7c-0.7,0.2-1.4,0.3-2.3,0.3
			c-1.8,0-3.3-0.6-4.4-1.9c-1.1-1.2-1.6-2.8-1.6-4.6c0-2.8,2.5-4.8,7.4-6.2c3.4-1,6.7-1.4,10-1.4c3.6,0,6.1,1.1,7.7,3.4
			c1.3,1.9,1.9,4.7,1.9,8.4c0,0.6,0,1.6-0.1,2.9c-0.1,1.3-0.1,2.3-0.1,2.9v5.2c0,0.3,0.1,0.6,0.4,0.9c0.3,0.3,0.6,0.5,0.8,0.5
			c0.4,0,0.6-0.6,0.8-1.9c0.2-1.4,0.5-2.2,0.8-2.5c0.9-0.4,1.8-0.9,2.7-1.3h0.5C362.1,38.7,362.6,41.3,362.6,44.2z M348.3,41.7v-0.6
			c0-2.5-0.4-4.6-1.2-6.3c-0.8,0.2-1.9,0.7-3.4,1.3c-1.9,0.8-2.8,1.6-2.8,2.5c0,0.9,1.1,1.7,3.2,2.4c1.7,0.6,3,0.9,3.8,0.9
			C348,41.9,348.1,41.8,348.3,41.7z"/>
	</g>
	<g>
		<path class="st1" d="M51.1,22c0,0.2-0.1,0.7-0.4,1.5c-0.3,0.8-0.4,1.4-0.4,1.5c-0.3,1.4-0.9,2.6-1.9,3.7c-0.4,0.3-1.5,1.2-3.1,2.6
			c-2.6,1.3-4.2,2.2-5,2.5c-1.9,0.9-3.6,1.5-5.2,2c-0.6,0.2-3.3,0.8-7.9,1.8v3c0,1.6,0.2,2.7,0.6,3.2c0.1,0,0.4,0.1,1.1,0.1
			c0.3,0,0.8,0,1.4-0.1s1.1-0.1,1.4-0.1c0.3,0,0.7,0,1.2-0.1c0.5-0.1,0.9-0.1,1.2-0.1c0.6,0,1.1,0.2,1.5,0.5
			c-0.2,1.1-0.3,2.5-0.3,4.2l0.1,3.8c-2.7,0-6.9,0.4-12.4,0.9c-5.6,0.6-9.8,0.9-12.6,1c-0.1-0.2-0.2-1.1-0.2-2.6
			c0-0.3,0-0.8-0.1-1.5c-0.1-0.7-0.1-1.2-0.1-1.5c0-0.9,2-2.3,6-4.1c0-0.1,0-0.2,0-0.2v-5c-0.4-3.8-0.7-8.3-0.9-13.6
			c0-1.1-0.1-2.3-0.1-3.5c0-1.3,0-2.2,0.1-2.7c-0.8-0.2-1.5-0.3-2-0.3c-0.3,0-0.7,0.1-1.2,0.2c-0.5,0.2-1,0.2-1.2,0.2
			c-1.1,0-1.6-0.4-1.6-1.3c0-0.7,0.3-3.7,0.8-9.2c0.3-0.3,0.6-0.5,1-0.6c1.3-0.3,6.9-0.5,17-0.5c4.8,0,9,0.5,12.7,1.6
			c2.9,0.8,4.5,1.4,5,1.5c1.8,0.8,3.1,1.9,4,3.3c0.4,0.7,0.9,2,1.3,3.8C50.9,19.6,51.1,21,51.1,22z M35.1,21.5
			c0-1.3-0.5-2.5-1.6-3.4c-1-1-2.2-1.5-3.4-1.5c-3.3-0.1-5.7-0.1-7,0c0.1,5.2,0.1,7.8,0,7.9l0.4,1.9c0.2,0.8,0.3,1.3,0.4,1.3h0.6
			c0.1,0,0.3,0,0.6-0.1c0.3,0,0.4-0.1,0.6-0.1s0.3,0,0.5-0.1c0.2-0.1,0.4-0.1,0.5-0.1c1.6,0,3.3-0.4,5.1-1.1
			c0.5-0.2,1.4-0.9,2.7-2.3C34.9,23.4,35.1,22.6,35.1,21.5z"/>
		<path class="st1" d="M73.6,50.1c-2.8,0.2-5.3,0.4-7.5,0.7c-0.7,0.1-2.2,0.4-4.4,0.7l-1.3,0.1c-3.4,0.4-6.1,0.6-8.1,0.6
			c-0.3,0-0.8-0.1-1.7-0.4v-1.2c0-2.7,0.2-4.7,0.6-5.9c0-0.2,0.5-0.5,1.3-0.9l3.8-1.8v-4.6c0-0.6-0.1-2-0.2-4.3
			c-0.1-1.7-0.2-5.2-0.3-10.5c0-2.1-0.2-3.5-0.5-4.2c-3.1,0-4.7-0.4-4.7-1.1l0.3-2.6c0.2-1.4,0.3-2.7,0.3-3.9
			c2.7-0.8,5.3-1.1,7.6-1.1c0.2,0,0.9,0,2,0.1l1.9,0.1c0.2,0,1,0,2.5,0.1l2.6,0.1c0.1,0,0.2,0,0.4,0.1s0.3,0.1,0.4,0.1
			c0.3,0,1,0.2,2,0.5c0.3,0.1,1,2.2,2,6.4c0,0.2,0.1,0.9,0.1,2c-0.8,0.1-2.1,0.4-3.8,0.8c-0.1,0-0.7,0.1-2,0.4
			c-0.7,0.1-1.2,0.4-1.4,0.8v1.6c0,4,0.3,9.5,0.8,16.5c0,0.3,0.2,0.8,0.5,1.4c1.1,0,2.9-0.3,5.4-0.8c0.1,0.3,0.3,0.6,0.6,0.8
			c0,1,0.2,2.5,0.4,4.6l0.3,3.2V50.1z"/>
		<path class="st1" d="M116.2,32c0,3.1-0.9,6.2-2.6,9.2c-2.4,4.2-5.1,7.2-8,8.9c-2.9,1.7-6.7,2.6-11.2,2.5l-9.1-0.1
			c-3,0-6.5-0.5-10.6-1.3v-1.8c0-1,0.2-2.2,0.6-3.6c0,0,0.8-0.5,2.4-1.4c1.6-0.9,2.4-1.6,2.4-2.1c0-0.2-0.1-2.1-0.3-5.8
			c-0.4-6.8-0.6-12-0.7-15.8c0-0.4-0.2-0.6-0.5-0.6c-0.3,0-0.6,0-1.1,0c-0.4,0-0.8,0-1.1,0c-0.9,0-1.6-0.1-2.1-0.3
			c0.1-2.3,0.4-5.7,0.9-10.2c0.6-0.5,1.6-0.7,3-0.7c0.3,0,1.2,0.1,2.6,0.2l2.6,0.2h0.4c0.5,0,1.3,0.1,2.3,0.2c1,0.2,1.8,0.2,2.3,0.2
			c-0.5,0-0.2,0.1,0.8,0.4c0.9,0.2,1.7,0.4,2.6,0.6l3.1,0.6c0.4,0.1,3.4,0.7,9,1.9c3.6,1.3,6.5,3.7,8.8,7.2
			C115.1,23.9,116.2,27.8,116.2,32z M105.2,31.5c0-3.3-1.5-6-4.5-8.2c-2.6-1.9-5.3-2.8-8.1-2.8c-0.1,0-0.2,0.1-0.3,0.2l-0.1,0.2
			c0,0,0-0.1,0-0.2c0,0-0.1-0.1-0.2-0.1c-0.1,0-0.2,0-0.4,0.1c-0.2,0-0.4,0.1-0.4,0.1c-0.3,1.8-0.6,3.7-0.7,5.5
			c-0.1,1.6-0.2,4.1-0.3,7.6c0,0.7-0.1,1.9-0.2,3.7l-0.3,2.7v3.1l0.3-0.2c0.3,0,0.6,0,1.2,0.1c0.5,0.1,0.9,0.1,1.2,0.1
			c5.3,0,9-2,11.1-6.1C104.6,34.7,105.2,32.8,105.2,31.5z"/>
	</g>
</g>
<g>
	<path class="st2" d="M225.7,78.7l-3.9-6.4h-3v6.4h-0.4V66h3.5c0.5,0,0.9,0,1.4,0.1c0.5,0.1,0.9,0.2,1.3,0.5c0.4,0.2,0.7,0.6,0.9,1
		c0.2,0.4,0.4,0.9,0.4,1.6c0,0.6-0.1,1.1-0.3,1.5c-0.2,0.4-0.5,0.7-0.9,1s-0.8,0.4-1.2,0.5c-0.4,0.1-0.9,0.2-1.3,0.2l3.9,6.4H225.7z
		 M225.6,69.2c0-0.6-0.1-1-0.3-1.4s-0.5-0.7-0.9-0.9c-0.4-0.2-0.8-0.4-1.2-0.4c-0.5-0.1-0.9-0.1-1.4-0.1h-2.9V72h3.1
		c1.2,0,2.1-0.2,2.7-0.7C225.3,70.7,225.6,70,225.6,69.2z"/>
	<path class="st2" d="M228.1,74.5c0,0.5,0.1,1,0.2,1.5c0.1,0.5,0.4,0.9,0.7,1.3c0.3,0.4,0.7,0.7,1.2,0.9s1,0.4,1.7,0.4
		c0.6,0,1.2-0.1,1.7-0.4c0.5-0.3,0.9-0.6,1.3-1.1l0.3,0.3c-0.4,0.5-0.9,0.9-1.4,1.2c-0.5,0.3-1.2,0.4-1.9,0.4
		c-0.6,0-1.2-0.1-1.7-0.3c-0.5-0.2-0.9-0.5-1.3-0.9c-0.4-0.4-0.6-0.9-0.8-1.4s-0.3-1.2-0.3-1.8c0-0.6,0.1-1.2,0.3-1.7
		c0.2-0.5,0.5-1,0.8-1.4c0.4-0.4,0.8-0.7,1.3-0.9c0.5-0.2,1-0.3,1.6-0.3c0.6,0,1.2,0.1,1.7,0.3c0.5,0.2,0.9,0.5,1.2,0.9
		c0.3,0.4,0.6,0.8,0.7,1.3c0.2,0.5,0.2,1,0.2,1.4v0.3H228.1z M235.1,74.2c0-0.5-0.1-1-0.3-1.5c-0.2-0.4-0.4-0.8-0.7-1.1
		c-0.3-0.3-0.7-0.6-1.1-0.7c-0.4-0.2-0.9-0.3-1.4-0.3c-0.6,0-1.2,0.1-1.6,0.4c-0.4,0.3-0.8,0.6-1.1,1c-0.3,0.4-0.5,0.8-0.6,1.2
		c-0.1,0.4-0.2,0.8-0.2,1.1H235.1z"/>
	<path class="st2" d="M239.3,81.5c-0.2,0.5-0.4,0.9-0.8,1.2c-0.3,0.3-0.7,0.4-1.2,0.4c-0.1,0-0.2,0-0.4,0c-0.1,0-0.3-0.1-0.4-0.1
		l0.1-0.3c0.1,0,0.2,0,0.3,0.1s0.2,0,0.4,0c0.3,0,0.5,0,0.7-0.1c0.2-0.1,0.3-0.2,0.5-0.4c0.1-0.2,0.2-0.3,0.3-0.5
		c0.1-0.2,0.2-0.4,0.2-0.6l0.8-2.2l-3.3-8.5h0.4l3,8.1l2.9-8.1h0.4L239.3,81.5z"/>
	<path class="st2" d="M245.7,74.3l4.3-3.8h0.6l-4.4,3.8l4.9,4.4h-0.6L245.7,74.3L245.7,74.3l0,4.5h-0.4V65.1h0.4L245.7,74.3
		L245.7,74.3z"/>
	<path class="st2" d="M253.2,80.5c0,0.4,0,0.8-0.1,1.1c-0.1,0.3-0.2,0.6-0.3,0.8s-0.4,0.4-0.6,0.5c-0.3,0.1-0.6,0.2-1,0.2
		c-0.1,0-0.2,0-0.3,0c-0.1,0-0.2,0-0.3,0l0.1-0.3c0.2,0,0.3,0.1,0.5,0.1c0.4,0,0.7-0.1,0.9-0.2s0.4-0.3,0.5-0.5
		c0.1-0.2,0.2-0.4,0.2-0.7c0-0.3,0-0.5,0-0.8V70.5h0.4V80.5z M253,67.4c-0.1,0-0.2,0-0.3-0.1s-0.1-0.2-0.1-0.3c0-0.1,0-0.2,0.1-0.3
		s0.2-0.1,0.3-0.1c0.1,0,0.2,0,0.3,0.1s0.1,0.2,0.1,0.3c0,0.1,0,0.3-0.1,0.3C253.2,67.3,253.1,67.4,253,67.4z"/>
	<path class="st2" d="M262.1,76.9c0,0.3,0,0.6,0,1c0,0.4,0.1,0.6,0.1,0.9h-0.4c0-0.1,0-0.3-0.1-0.4c0-0.2,0-0.4,0-0.5
		c0-0.2,0-0.4,0-0.5c0-0.2,0-0.3,0-0.5h-0.1c-0.2,0.8-0.7,1.3-1.2,1.7s-1.2,0.5-1.9,0.5c-0.3,0-0.7,0-1-0.1
		c-0.3-0.1-0.6-0.2-0.9-0.4c-0.3-0.2-0.5-0.4-0.6-0.7s-0.2-0.7-0.2-1.1c0-0.6,0.2-1.1,0.5-1.4c0.3-0.4,0.7-0.6,1.1-0.8
		s0.9-0.3,1.5-0.4c0.5-0.1,1-0.1,1.4-0.1h1.4v-0.7c0-0.9-0.2-1.6-0.7-2s-1.1-0.6-1.9-0.6c-0.5,0-1,0.1-1.4,0.3s-0.8,0.4-1.1,0.7
		l-0.2-0.3c0.4-0.3,0.8-0.6,1.3-0.8c0.5-0.2,1-0.3,1.4-0.3c0.9,0,1.7,0.2,2.2,0.7c0.5,0.5,0.8,1.3,0.8,2.3V76.9z M261.7,74.2h-1.3
		c-0.5,0-0.9,0-1.4,0.1c-0.5,0.1-1,0.2-1.4,0.3c-0.4,0.2-0.8,0.4-1,0.7c-0.3,0.3-0.4,0.7-0.4,1.3c0,0.4,0.1,0.7,0.2,1
		c0.2,0.3,0.3,0.5,0.6,0.6c0.2,0.2,0.5,0.3,0.8,0.3c0.3,0.1,0.5,0.1,0.8,0.1c0.6,0,1.1-0.1,1.5-0.3c0.4-0.2,0.7-0.5,1-0.9
		c0.2-0.4,0.4-0.7,0.5-1.2c0.1-0.4,0.1-0.8,0.1-1.3V74.2z"/>
	<path class="st2" d="M267.6,78.7h-0.5l-3.3-8.3h0.4l3.1,7.9h0l3-7.9h0.4L267.6,78.7z"/>
	<path class="st2" d="M272.8,67.4c-0.1,0-0.2,0-0.3-0.1s-0.1-0.2-0.1-0.3c0-0.1,0-0.2,0.1-0.3s0.2-0.1,0.3-0.1c0.1,0,0.2,0,0.3,0.1
		s0.1,0.2,0.1,0.3c0,0.1,0,0.3-0.1,0.3C273,67.3,272.9,67.4,272.8,67.4z M272.6,78.7v-8.3h0.4v8.3H272.6z"/>
	<path class="st2" d="M276.6,74.3l4.3-3.8h0.6l-4.4,3.8l4.9,4.4h-0.6L276.6,74.3L276.6,74.3l0,4.5h-0.4V65.1h0.4L276.6,74.3
		L276.6,74.3z"/>
	<path class="st2" d="M283.5,81.2h-0.3l1-4.1h0.4L283.5,81.2z"/>
	<path class="st2" d="M300.8,78.7l-9.1-12.2h-0.1v12.2h-0.4V66h0.6l9.2,12.2h0.1V66h0.4v12.7H300.8z"/>
	<path class="st2" d="M312.6,74.6c0,0.6-0.1,1.2-0.3,1.8s-0.5,1-0.9,1.4c-0.4,0.4-0.8,0.7-1.4,0.9c-0.5,0.2-1.1,0.3-1.8,0.3
		c-0.6,0-1.2-0.1-1.7-0.3c-0.5-0.2-1-0.5-1.4-0.9c-0.4-0.4-0.7-0.9-0.9-1.4s-0.3-1.1-0.3-1.8c0-0.6,0.1-1.2,0.3-1.8s0.5-1,0.9-1.4
		c0.4-0.4,0.8-0.7,1.4-0.9c0.5-0.2,1.1-0.3,1.7-0.3c0.6,0,1.2,0.1,1.8,0.3c0.5,0.2,1,0.5,1.4,0.9c0.4,0.4,0.7,0.8,0.9,1.4
		S312.6,73.9,312.6,74.6z M312.2,74.6c0-0.6-0.1-1.1-0.3-1.6c-0.2-0.5-0.4-0.9-0.8-1.3s-0.8-0.7-1.2-0.9s-1-0.3-1.6-0.3
		c-0.6,0-1.2,0.1-1.6,0.3s-0.9,0.5-1.2,0.9c-0.3,0.4-0.6,0.8-0.8,1.3c-0.2,0.5-0.3,1-0.3,1.6c0,0.6,0.1,1.1,0.3,1.6
		c0.2,0.5,0.4,0.9,0.8,1.3c0.3,0.4,0.8,0.7,1.2,0.9s1,0.3,1.6,0.3c0.6,0,1.2-0.1,1.6-0.3s0.9-0.5,1.2-0.9s0.6-0.8,0.8-1.3
		C312.1,75.7,312.2,75.2,312.2,74.6z"/>
	<path class="st2" d="M317.5,78.7H317l-3.3-8.3h0.4l3.1,7.9h0l3-7.9h0.4L317.5,78.7z"/>
	<path class="st2" d="M325.8,78.7v-0.5l4.4-5.2c0.7-0.8,1.2-1.5,1.6-2.1c0.4-0.6,0.6-1.3,0.6-1.9c0-0.4-0.1-0.8-0.2-1.2
		c-0.1-0.4-0.3-0.7-0.6-0.9s-0.6-0.4-0.9-0.6c-0.4-0.1-0.7-0.2-1.1-0.2c-0.7,0-1.3,0.2-1.8,0.5c-0.5,0.4-0.9,0.9-1.1,1.6l-0.4-0.1
		c0.2-0.8,0.6-1.4,1.2-1.8s1.3-0.6,2.1-0.6c0.5,0,0.9,0.1,1.3,0.2c0.4,0.2,0.7,0.4,1,0.7c0.3,0.3,0.5,0.6,0.7,1
		c0.2,0.4,0.2,0.8,0.2,1.2c0,0.4-0.1,0.8-0.2,1.1s-0.3,0.7-0.5,1.1c-0.2,0.4-0.5,0.7-0.8,1.1c-0.3,0.4-0.7,0.8-1.1,1.3l-4.2,4.9h6.8
		v0.4H325.8z"/>
	<path class="st2" d="M339.4,79c-0.8,0-1.5-0.2-2-0.6s-0.9-0.9-1.2-1.6c-0.3-0.6-0.5-1.3-0.6-2.1c-0.1-0.8-0.2-1.5-0.2-2.3
		c0-0.7,0.1-1.5,0.2-2.3c0.1-0.8,0.3-1.5,0.6-2.1c0.3-0.6,0.7-1.2,1.2-1.6s1.2-0.6,2-0.6c0.8,0,1.5,0.2,2,0.6
		c0.5,0.4,0.9,0.9,1.2,1.6c0.3,0.6,0.5,1.3,0.6,2.1c0.1,0.8,0.2,1.5,0.2,2.3c0,0.7-0.1,1.5-0.2,2.3c-0.1,0.8-0.3,1.5-0.6,2.1
		c-0.3,0.6-0.7,1.2-1.2,1.6C340.8,78.8,340.2,79,339.4,79z M339.4,66.1c-0.5,0-1,0.1-1.4,0.3c-0.4,0.2-0.7,0.5-1,0.9
		c-0.3,0.4-0.5,0.8-0.6,1.2c-0.2,0.5-0.3,0.9-0.4,1.4s-0.1,0.9-0.2,1.3c0,0.4,0,0.8,0,1.1c0,0.3,0,0.7,0,1.1c0,0.4,0.1,0.9,0.2,1.3
		s0.2,0.9,0.4,1.4c0.2,0.5,0.4,0.9,0.6,1.2s0.6,0.6,1,0.9c0.4,0.2,0.9,0.3,1.4,0.3s1-0.1,1.4-0.3c0.4-0.2,0.7-0.5,1-0.9
		s0.5-0.8,0.6-1.2s0.3-0.9,0.4-1.4s0.1-0.9,0.2-1.3c0-0.4,0-0.8,0-1.1c0-0.3,0-0.7,0-1.1c0-0.4-0.1-0.9-0.2-1.3s-0.2-0.9-0.4-1.4
		s-0.4-0.9-0.6-1.2c-0.3-0.4-0.6-0.6-1-0.9C340.4,66.3,339.9,66.1,339.4,66.1z"/>
	<path class="st2" d="M349.2,78.7V66.5l-2.4,2.1l-0.2-0.3l2.6-2.2h0.4v12.7H349.2z"/>
	<path class="st2" d="M354.8,75.1c0-0.5,0.1-1,0.2-1.5s0.4-1.1,0.8-1.8l3.4-5.8h0.5l-3.8,6.5l0,0c0.3-0.4,0.7-0.7,1.2-0.9
		c0.5-0.2,1-0.3,1.6-0.3c0.5,0,1,0.1,1.4,0.3c0.4,0.2,0.8,0.5,1.2,0.8c0.3,0.3,0.6,0.8,0.8,1.2c0.2,0.5,0.3,1,0.3,1.5
		c0,0.6-0.1,1.1-0.3,1.5c-0.2,0.5-0.4,0.9-0.8,1.2s-0.7,0.6-1.2,0.8c-0.5,0.2-1,0.3-1.5,0.3c-0.6,0-1.1-0.1-1.5-0.3
		c-0.5-0.2-0.9-0.4-1.2-0.8c-0.3-0.3-0.6-0.7-0.8-1.2C354.9,76.2,354.8,75.7,354.8,75.1z M355.2,75.1c0,0.5,0.1,1,0.3,1.4
		s0.4,0.8,0.7,1.1c0.3,0.3,0.7,0.6,1.1,0.7s0.9,0.3,1.4,0.3s0.9-0.1,1.4-0.3s0.8-0.4,1.1-0.7c0.3-0.3,0.5-0.7,0.7-1.1
		s0.3-0.9,0.3-1.4s-0.1-1-0.2-1.4c-0.2-0.4-0.4-0.8-0.7-1.1c-0.3-0.3-0.6-0.6-1-0.7c-0.4-0.2-0.8-0.3-1.3-0.3
		c-0.5,0-0.9,0.1-1.3,0.3c-0.4,0.2-0.8,0.4-1.1,0.7c-0.3,0.3-0.6,0.7-0.8,1.1C355.3,74.2,355.2,74.6,355.2,75.1z"/>
</g>
</svg>
