<?xml version="1.0" encoding="utf-8"?>
<!-- Generator: Adobe Illustrator 19.1.0, SVG Export Plug-In . SVG Version: 6.00 Build 0)  -->
<svg version="1.1" id="Layer_1" xmlns="http://www.w3.org/2000/svg" xmlns:xlink="http://www.w3.org/1999/xlink" x="0px" y="0px"
	 viewBox="0 0 304.1 91.5" style="enable-background:new 0 0 304.1 91.5;" xml:space="preserve">
<style type="text/css">
	.st0{fill:#C9C1B8;}
	.st1{fill:#C1D82F;}
</style>
<g>
	<g>
		<g>
			<path class="st0" d="M37.3,20.1c22.9,0,37.4,16.3,37.4,35.7c0,18.8-14.1,35.7-37.6,35.7C14.4,91.5,0,74.7,0,55.8
				C0,36.5,14.8,20.1,37.3,20.1z M37.3,82.3c15.6,0,27.1-11.3,27.1-26.5c0-15.3-11.5-26.5-27.1-26.5c-15.5,0-27,11.2-27,26.5
				C10.3,71,21.8,82.3,37.3,82.3z"/>
			<path class="st0" d="M103.6,21c14.1,0,22.8,7.4,22.8,19.5c0,8.1-4.2,14.1-11.6,17c6.3,4.2,10.2,10.6,15.5,19.3
				c3,4.8,4.7,7.1,9.5,13.8h-11.9l-9.2-14.3c-9.2-14.3-13.4-15.9-18.5-15.9H96v30.2H86V21H103.6z M96,51.4h6.4
				c10.7,0,13.8-5.5,13.7-11.3c-0.1-6.5-4-10.5-13.7-10.5H96V51.4z"/>
			<path class="st0" d="M201.5,36.5c-8.6-5-15.9-7.2-24-7.2c-15.9,0-27.7,11.3-27.7,26.6c0,15.6,11.4,26.4,28.2,26.4
				c7.9,0,16.4-2.8,24.3-7.9v10.9c-6.8,3.6-14.3,6.1-25.2,6.1c-26.1,0-37.5-20.1-37.5-34.7c0-21.2,16-36.7,38.1-36.7
				c7.1,0,14.4,1.7,23.9,5.7V36.5z"/>
			<path class="st1" d="M240.1,21h27c25.7,0,37,18.4,37,34.8c0,17.8-14,34.8-36.9,34.8h-27.1V21z M250.1,81.6H266
				c22.6,0,27.8-17.2,27.8-25.8c0-14-8.9-25.8-28.4-25.8h-15.4V81.6z"/>
			<g>
				<path class="st1" d="M226.1,90.6h-10V21h10v38.7V90.6z"/>
				<path class="st1" d="M227.7,6.6c0,3.6-2.9,6.6-6.6,6.6c-3.6,0-6.6-2.9-6.6-6.6s2.9-6.6,6.6-6.6C224.7,0,227.7,2.9,227.7,6.6z"/>
			</g>
		</g>
	</g>
</g>
</svg>
